<?xml version="1.0" encoding="utf-8"?>
<!-- Generator: Adobe Illustrator 19.2.1, SVG Export Plug-In . SVG Version: 6.00 Build 0)  -->
<svg version="1.1" id="Layer_1" xmlns="http://www.w3.org/2000/svg" xmlns:xlink="http://www.w3.org/1999/xlink" x="0px" y="0px"
	 viewBox="0 0 48 30" style="enable-background:new 0 0 48 30;" xml:space="preserve">
<style type="text/css">
	.st0{fill:#777777;}
	.st1{fill:#FFFFFF;}
</style>
<title>Group 4</title>
<desc>Created with Sketch.</desc>
<g id="Error-Scenario">
	<g id="ipad-signing-2" transform="translate(-597.000000, -611.000000)">
		<g id="Group-4" transform="translate(597.000000, 611.000000)">
			<path id="Rectangle-2" class="st0" d="M1,0h46c0.6,0,1,0.4,1,1v28c0,0.6-0.4,1-1,1H1c-0.6,0-1-0.4-1-1V1C0,0.4,0.4,0,1,0z"/>
			<g id="ico_trash_bin" transform="translate(16.000000, 6.000000)">
				<g id="Group" transform="translate(1.184953, 2.962382)">
					<path id="Shape" class="st1" d="M11.3,11.8c0,0.7-0.5,1.2-1.2,1.2H2.4c-0.7,0-1.2-0.5-1.2-1.2V0.4H0v11.4
						c0,1.3,1.1,2.4,2.4,2.4h7.7c1.3,0,2.4-1.1,2.4-2.4V0.4h-1.2V11.8z"/>
					<path id="Shape_1_" class="st1" d="M2.4,2.3H3v7.8H2.4V2.3z M4.1,2.3h0.6v7.8H4.1V2.3z M5.9,2.3h0.6v7.8H5.9V2.3z M7.7,2.3h0.6
						v7.8H7.7V2.3z M9.5,2.3h0.6v7.8H9.5V2.3z"/>
				</g>
				<path id="Shape_2_" class="st1" d="M14.2,1.2H8.9V0.6C8.9,0.2,8.6,0,8.3,0H6.5C6.2,0,5.9,0.3,5.9,0.6v0.6H0.6
					C0.3,1.2,0,1.5,0,1.8s0.3,0.6,0.6,0.6h13.6c0.3,0,0.6-0.3,0.6-0.6S14.5,1.2,14.2,1.2z"/>
			</g>
		</g>
	</g>
</g>
</svg>
